<svg xmlns="http://www.w3.org/2000/svg" xmlns:svg="http://www.w3.org/2000/svg" id="svg28" width="404.048" height="220.973" version="1.1" viewBox="0 0 404.048 220.973" xml:space="preserve"><metadata id="metadata34"/><defs id="defs32"><clipPath id="clipPath48" clipPathUnits="userSpaceOnUse"><path id="path46" d="M 59.04,73.44 H 761.76 V 552.96 H 59.04 Z"/></clipPath></defs><g id="g36" transform="matrix(1.3333333,0,0,-1.3333333,-5.8035755,737.78012)"><g id="g38" transform="translate(481.73731,-433.03549)"><path id="path40" style="fill:#fff;fill-opacity:1;fill-rule:nonzero;stroke:none" d="M 0,0 H 792 V 612 H 0 Z"/></g><g id="g42" transform="matrix(0.28219533,0,0,0.30886107,40.679988,384.19425)"><g id="g44" clip-path="url(#clipPath48)"><path id="path50" style="fill:none;stroke:#000;stroke-width:.75;stroke-linecap:round;stroke-linejoin:round;stroke-miterlimit:10;stroke-dasharray:none;stroke-opacity:1" d="m 85.07,535.2 13.84,-216.25 27.69,-113.34 27.69,-42.78 27.68,-26.23 27.69,-13.44 27.69,-9.77 27.69,-6.72 27.69,-5.71 27.68,-3.07 27.69,-3.03 27.69,-2.06 27.69,-1.6 27.69,19.61 27.68,-1.17 27.69,-4.12 27.69,-2.15 27.69,0.09 27.69,-0.77 27.68,4.24 27.69,16.79 27.69,3.79 27.69,16.36 27.69,31.36 27.68,60.87"/></g></g><g id="g52" transform="matrix(0.28219533,0,0,0.30886107,40.679988,384.19425)"><path id="path54" style="fill:none;stroke:#000;stroke-width:.75;stroke-linecap:round;stroke-linejoin:round;stroke-miterlimit:10;stroke-dasharray:none;stroke-opacity:1" d="M 71.22,73.44 H 624.98"/><path id="path56" style="fill:none;stroke:#000;stroke-width:.75;stroke-linecap:round;stroke-linejoin:round;stroke-miterlimit:10;stroke-dasharray:none;stroke-opacity:1" d="m 71.22,73.44 v -7.2"/><path id="path58" style="fill:none;stroke:#000;stroke-width:.75;stroke-linecap:round;stroke-linejoin:round;stroke-miterlimit:10;stroke-dasharray:none;stroke-opacity:1" d="m 209.66,73.44 v -7.2"/><path id="path60" style="fill:none;stroke:#000;stroke-width:.75;stroke-linecap:round;stroke-linejoin:round;stroke-miterlimit:10;stroke-dasharray:none;stroke-opacity:1" d="m 348.1,73.44 v -7.2"/><path id="path62" style="fill:none;stroke:#000;stroke-width:.75;stroke-linecap:round;stroke-linejoin:round;stroke-miterlimit:10;stroke-dasharray:none;stroke-opacity:1" d="m 486.54,73.44 v -7.2"/><path id="path64" style="fill:none;stroke:#000;stroke-width:.75;stroke-linecap:round;stroke-linejoin:round;stroke-miterlimit:10;stroke-dasharray:none;stroke-opacity:1" d="m 624.98,73.44 v -7.2"/><text id="text68" style="font-variant:normal;font-weight:400;font-size:12px;font-family:Helvetica;-inkscape-font-specification:Helvetica;writing-mode:lr-tb;fill:#000;fill-opacity:1;fill-rule:nonzero;stroke:none" transform="matrix(1,0,0,-1,67.89,47.52)"><tspan id="tspan66" x="0" y="0">0</tspan></text><text id="text72" style="font-variant:normal;font-weight:400;font-size:12px;font-family:Helvetica;-inkscape-font-specification:Helvetica;writing-mode:lr-tb;fill:#000;fill-opacity:1;fill-rule:nonzero;stroke:none" transform="matrix(1,0,0,-1,202.99,47.52)"><tspan id="tspan70" x="0 6.672" y="0">10</tspan></text><text id="text76" style="font-variant:normal;font-weight:400;font-size:12px;font-family:Helvetica;-inkscape-font-specification:Helvetica;writing-mode:lr-tb;fill:#000;fill-opacity:1;fill-rule:nonzero;stroke:none" transform="matrix(1,0,0,-1,341.43,47.52)"><tspan id="tspan74" x="0 6.672" y="0">20</tspan></text><text id="text80" style="font-variant:normal;font-weight:400;font-size:12px;font-family:Helvetica;-inkscape-font-specification:Helvetica;writing-mode:lr-tb;fill:#000;fill-opacity:1;fill-rule:nonzero;stroke:none" transform="matrix(1,0,0,-1,479.87,47.52)"><tspan id="tspan78" x="0 6.672" y="0">30</tspan></text><text id="text84" style="font-variant:normal;font-weight:400;font-size:12px;font-family:Helvetica;-inkscape-font-specification:Helvetica;writing-mode:lr-tb;fill:#000;fill-opacity:1;fill-rule:nonzero;stroke:none" transform="matrix(1,0,0,-1,618.31,47.52)"><tspan id="tspan82" x="0 6.672" y="0">40</tspan></text><path id="path86" style="fill:none;stroke:#000;stroke-width:.75;stroke-linecap:round;stroke-linejoin:round;stroke-miterlimit:10;stroke-dasharray:none;stroke-opacity:1" d="M 59.04,155.99 V 535.17"/><path id="path88" style="fill:none;stroke:#000;stroke-width:.75;stroke-linecap:round;stroke-linejoin:round;stroke-miterlimit:10;stroke-dasharray:none;stroke-opacity:1" d="m 59.04,155.99 h -7.2"/><path id="path90" style="fill:none;stroke:#000;stroke-width:.75;stroke-linecap:round;stroke-linejoin:round;stroke-miterlimit:10;stroke-dasharray:none;stroke-opacity:1" d="m 59.04,250.79 h -7.2"/><path id="path92" style="fill:none;stroke:#000;stroke-width:.75;stroke-linecap:round;stroke-linejoin:round;stroke-miterlimit:10;stroke-dasharray:none;stroke-opacity:1" d="m 59.04,345.58 h -7.2"/><path id="path94" style="fill:none;stroke:#000;stroke-width:.75;stroke-linecap:round;stroke-linejoin:round;stroke-miterlimit:10;stroke-dasharray:none;stroke-opacity:1" d="m 59.04,440.37 h -7.2"/><path id="path96" style="fill:none;stroke:#000;stroke-width:.75;stroke-linecap:round;stroke-linejoin:round;stroke-miterlimit:10;stroke-dasharray:none;stroke-opacity:1" d="m 59.04,535.17 h -7.2"/><text id="text100" style="font-variant:normal;font-weight:400;font-size:12px;font-family:Helvetica;-inkscape-font-specification:Helvetica;writing-mode:lr-tb;fill:#000;fill-opacity:1;fill-rule:nonzero;stroke:none" transform="matrix(0,1,1,0,41.76,147.65)"><tspan id="tspan98" x="0 6.672 10.008" y="0">0.5</tspan></text><text id="text104" style="font-variant:normal;font-weight:400;font-size:12px;font-family:Helvetica;-inkscape-font-specification:Helvetica;writing-mode:lr-tb;fill:#000;fill-opacity:1;fill-rule:nonzero;stroke:none" transform="matrix(0,1,1,0,41.76,242.45)"><tspan id="tspan102" x="0 6.672 10.008" y="0">1.0</tspan></text><text id="text108" style="font-variant:normal;font-weight:400;font-size:12px;font-family:Helvetica;-inkscape-font-specification:Helvetica;writing-mode:lr-tb;fill:#000;fill-opacity:1;fill-rule:nonzero;stroke:none" transform="matrix(0,1,1,0,41.76,337.24)"><tspan id="tspan106" x="0 6.672 10.008" y="0">1.5</tspan></text><text id="text112" style="font-variant:normal;font-weight:400;font-size:12px;font-family:Helvetica;-inkscape-font-specification:Helvetica;writing-mode:lr-tb;fill:#000;fill-opacity:1;fill-rule:nonzero;stroke:none" transform="matrix(0,1,1,0,41.76,432.03)"><tspan id="tspan110" x="0 6.672 10.008" y="0">2.0</tspan></text><text id="text116" style="font-variant:normal;font-weight:400;font-size:12px;font-family:Helvetica;-inkscape-font-specification:Helvetica;writing-mode:lr-tb;fill:#000;fill-opacity:1;fill-rule:nonzero;stroke:none" transform="matrix(0,1,1,0,41.76,526.83)"><tspan id="tspan114" x="0 6.672 10.008" y="0">2.5</tspan></text><path id="path118" style="fill:none;stroke:#000;stroke-width:.75;stroke-linecap:round;stroke-linejoin:round;stroke-miterlimit:10;stroke-dasharray:none;stroke-opacity:1" d="M 59.04,73.44 H 761.76 V 552.96 H 59.04 V 73.44"/></g><g id="g120" transform="matrix(0.28219533,0,0,0.30886107,40.679988,384.19425)"><text id="text124" style="font-variant:normal;font-weight:400;font-size:12px;font-family:Helvetica;-inkscape-font-specification:Helvetica;writing-mode:lr-tb;fill:#000;fill-opacity:1;fill-rule:nonzero;stroke:none" transform="matrix(1,0,0,-1,383.39,18.72)"><tspan id="tspan122" x="0 6.672 10.008 17.34 24.012 28.008 34.68 41.352 48.024" y="0"># Threads</tspan></text><text id="text128" style="font-variant:normal;font-weight:400;font-size:12px;font-family:Helvetica;-inkscape-font-specification:Helvetica;writing-mode:lr-tb;fill:#000;fill-opacity:1;fill-rule:nonzero;stroke:none" transform="matrix(0,1,1,0,12.96,293.62)"><tspan id="tspan126" x="0 7.332 9.996 19.992 26.484 29.82 33.156" y="0">Time, s</tspan></text></g></g></svg>