<svg xmlns="http://www.w3.org/2000/svg" xmlns:svg="http://www.w3.org/2000/svg" id="Layer_1" width="40.2" height="40.2" x="0" y="0" version="1.1" viewBox="0 0 40.2 40.2" xml:space="preserve"><metadata id="metadata4717"/><style id="style4694" type="text/css">.st0{fill:#f05732}.st1{fill:#9e529f}</style><path style="fill:#f05732" id="path4696" d="m 26.975479,12.199999 c -1.3,-1 -1.8,3.9 -4.4,3.9 -3,0 -4,-12.9999998 -6.3,-12.9999998 -0.7,0 -0.8,-0.4 -7.9000003,21.2999998 -2.9000001,9 4.4000003,15.8 11.8000003,15.8 4.6,0 12.3,-3 12.3,-12.6 0,-7.1 -3.5,-13.9 -5.5,-15.4 z m -6.9,23.1 c -3.7,0 -6.7,-3.1 -6.7,-7 0,-3.9 3,-7 6.7,-7 3.7,0 6.7,3.1 6.7,7 0,3.8 -3,7 -6.7,7 z" class="st0"/><path style="fill:#9e529f" id="path4698" d="m 24.075479,-7.6293945e-7 c -0.5,0 -1.8,2.49999996293945 -1.8,3.59999996293945 0,1.5 1,2 1.8,2 0.8,0 1.8,-0.5 1.8,-2 -0.1,-1.1 -1.4,-3.59999996293945 -1.8,-3.59999996293945 z" class="st1"/></svg>